<svg id="Layer_1" data-name="Layer 1" xmlns="http://www.w3.org/2000/svg" xmlns:xlink="http://www.w3.org/1999/xlink" viewBox="0 0 1928 2038"><defs><style>.cls-1{fill:url(#linear-gradient);}.cls-2{fill:none;stroke:#fff;stroke-miterlimit:10;stroke-width:6px;}</style><linearGradient id="linear-gradient" x1="964" y1="2038" x2="964" y2="17.06" gradientUnits="userSpaceOnUse"><stop offset="0.01" stop-color="#fbfff0"/><stop offset="1" stop-color="#f7eeff"/></linearGradient></defs><rect class="cls-1" width="1928" height="2038"/><path class="cls-2" d="M121.3,545.89c-13.13,7.73-22,22.91-22,40.38,0,16.44,7.9,30.85,19.76,38.94,13.12-7.73,22-22.92,22-40.39C141.05,568.39,133.16,554,121.3,545.89Z" transform="translate(-1 -6)"/><path class="cls-2" d="M165.4,556c-15.85,1.9-32.31,11.94-42.33,27.34-9.41,14.48-10.8,30.14-5.11,41.7,15.85-1.9,32.32-11.94,42.33-27.34C169.71,583.2,171.09,567.54,165.4,556Z" transform="translate(-1 -6)"/><path class="cls-2" d="M77.84,554c-7.63,11.74-7.37,28.58,2.23,44.19,9,14.68,24.1,24.64,39.27,27.49,7.64-11.73,7.37-28.58-2.23-44.18C108.08,566.82,93,556.86,77.84,554Z" transform="translate(-1 -6)"/><path class="cls-2" d="M197.56,578.2c-15.36-3.31-35.27.6-51.92,11.46-15.66,10.21-24.58,24-25.06,36.4,15.37,3.31,35.28-.6,51.92-11.46C188.17,604.39,197.09,590.56,197.56,578.2Z" transform="translate(-1 -6)"/><path class="cls-2" d="M50,579c-1.39,12.54,6.26,26.71,21.38,36.64,14.24,9.34,31.58,12.62,45.89,9.84,1.4-12.54-6.25-26.71-21.37-36.64C81.7,579.51,64.36,576.22,50,579Z" transform="translate(-1 -6)"/><path class="cls-2" d="M133.57,301.82c-16.75,9.87-28.14,29.26-28.14,51.56,0,21,10.08,39.39,25.22,49.71,16.75-9.87,28.15-29.26,28.15-51.56C158.8,330.54,148.71,312.14,133.57,301.82Z" transform="translate(-1 -6)"/><path class="cls-2" d="M189.88,314.7c-20.23,2.43-41.26,15.25-54,34.91-12,18.49-13.79,38.47-6.52,53.24,20.23-2.43,41.26-15.25,54-34.9C195.38,349.46,197.15,329.47,189.88,314.7Z" transform="translate(-1 -6)"/><path class="cls-2" d="M78.09,312.18c-9.75,15-9.41,36.49,2.85,56.41,11.53,18.74,30.76,31.46,50.14,35.11,9.74-15,9.4-36.49-2.85-56.42C116.7,328.54,97.46,315.82,78.09,312.18Z" transform="translate(-1 -6)"/><path class="cls-2" d="M230.94,343.07c-19.61-4.23-45,.77-66.29,14.63-20,13-31.39,30.7-32,46.48,19.61,4.23,45-.77,66.29-14.63C219,376.51,230.34,358.85,230.94,343.07Z" transform="translate(-1 -6)"/><path class="cls-2" d="M42.6,344.09c-1.78,16,8,34.11,27.3,46.78,18.17,11.92,40.31,16.12,58.59,12.57,1.78-16-8-34.1-27.3-46.78C83,344.74,60.87,340.55,42.6,344.09Z" transform="translate(-1 -6)"/><path class="cls-2" d="M1809,82.55c-13.12,7.73-22,22.91-22,40.38,0,16.44,7.9,30.85,19.76,38.93,13.12-7.73,22-22.91,22-40.38C1828.7,105.05,1820.81,90.63,1809,82.55Z" transform="translate(-1 -6)"/><path class="cls-2" d="M1853.05,92.64c-15.85,1.9-32.31,11.94-42.32,27.33-9.42,14.49-10.81,30.14-5.12,41.71,15.85-1.9,32.32-12,42.33-27.34C1857.36,119.86,1858.74,104.2,1853.05,92.64Z" transform="translate(-1 -6)"/><path class="cls-2" d="M1765.49,90.66c-7.63,11.73-7.37,28.58,2.23,44.18,9,14.68,24.1,24.65,39.28,27.5,7.63-11.73,7.36-28.58-2.24-44.18C1795.73,103.48,1780.67,93.51,1765.49,90.66Z" transform="translate(-1 -6)"/><path class="cls-2" d="M1885.21,114.86c-15.36-3.32-35.27.6-51.92,11.45-15.66,10.21-24.58,24.05-25.06,36.41,15.37,3.31,35.28-.61,51.93-11.46C1875.82,141.05,1884.74,127.21,1885.21,114.86Z" transform="translate(-1 -6)"/><path class="cls-2" d="M1737.7,115.66c-1.4,12.54,6.25,26.71,21.37,36.64,14.24,9.33,31.58,12.62,45.9,9.84,1.39-12.54-6.26-26.71-21.38-36.64C1769.36,116.16,1752,112.88,1737.7,115.66Z" transform="translate(-1 -6)"/><path class="cls-2" d="M126.75,82.49c-13.12,7.73-22,22.91-22,40.38,0,16.44,7.89,30.85,19.75,38.93,13.13-7.73,22-22.91,22-40.38C146.51,105,138.61,90.57,126.75,82.49Z" transform="translate(-1 -6)"/><path class="cls-2" d="M170.86,92.58c-15.85,1.9-32.32,11.94-42.33,27.33-9.42,14.49-10.8,30.14-5.11,41.71,15.85-1.9,32.31-12,42.33-27.34C175.16,119.8,176.55,104.14,170.86,92.58Z" transform="translate(-1 -6)"/><path class="cls-2" d="M83.29,90.6c-7.63,11.73-7.36,28.58,2.24,44.18,9,14.68,24.09,24.65,39.27,27.5,7.63-11.73,7.36-28.58-2.23-44.18C113.54,103.42,98.47,93.45,83.29,90.6Z" transform="translate(-1 -6)"/><path class="cls-2" d="M203,114.8c-15.37-3.32-35.28.6-51.93,11.45-15.66,10.21-24.58,24.05-25,36.41,15.36,3.31,35.27-.61,51.92-11.46C193.62,141,202.54,127.15,203,114.8Z" transform="translate(-1 -6)"/><path class="cls-2" d="M55.5,115.6c-1.4,12.54,6.25,26.71,21.38,36.64,14.23,9.33,31.58,12.62,45.89,9.84,1.4-12.54-6.25-26.71-21.38-36.64C87.16,116.1,69.81,112.82,55.5,115.6Z" transform="translate(-1 -6)"/><path class="cls-2" d="M1797,313.68c-16.75,9.87-28.14,29.26-28.14,51.56,0,21,10.08,39.39,25.22,49.71,16.75-9.87,28.15-29.25,28.15-51.56C1822.27,342.41,1812.18,324,1797,313.68Z" transform="translate(-1 -6)"/><path class="cls-2" d="M1853.35,326.57c-20.23,2.42-41.26,15.24-54,34.9-12,18.49-13.79,38.48-6.52,53.24,20.23-2.42,41.26-15.25,54-34.9C1858.85,361.32,1860.62,341.33,1853.35,326.57Z" transform="translate(-1 -6)"/><path class="cls-2" d="M1741.56,324c-9.75,15-9.41,36.49,2.85,56.41,11.53,18.74,30.76,31.47,50.14,35.11,9.74-15,9.4-36.49-2.85-56.41C1780.17,340.4,1760.93,327.68,1741.56,324Z" transform="translate(-1 -6)"/><path class="cls-2" d="M1894.41,354.93c-19.61-4.23-45,.77-66.29,14.63-20,13-31.39,30.7-32,46.48,19.61,4.23,45-.77,66.29-14.63C1882.42,388.38,1893.81,370.71,1894.41,354.93Z" transform="translate(-1 -6)"/><path class="cls-2" d="M1706.07,356c-1.78,16,8,34.11,27.3,46.78,18.17,11.93,40.31,16.12,58.59,12.57,1.78-16-8-34.1-27.3-46.78C1746.49,356.6,1724.34,352.41,1706.07,356Z" transform="translate(-1 -6)"/><path class="cls-2" d="M1809,546.75c-13.12,7.72-22,22.91-22,40.38,0,16.43,7.9,30.85,19.76,38.93,13.12-7.73,22-22.91,22-40.38C1828.7,569.24,1820.81,554.83,1809,546.75Z" transform="translate(-1 -6)"/><path class="cls-2" d="M1853.05,556.84c-15.85,1.89-32.31,11.94-42.32,27.33-9.42,14.48-10.81,30.14-5.12,41.7,15.85-1.9,32.32-11.94,42.33-27.33C1857.36,584.05,1858.74,568.4,1853.05,556.84Z" transform="translate(-1 -6)"/><path class="cls-2" d="M1765.49,554.86c-7.63,11.73-7.37,28.58,2.23,44.18,9,14.68,24.1,24.64,39.28,27.5,7.63-11.74,7.36-28.58-2.24-44.19C1795.73,567.67,1780.67,557.71,1765.49,554.86Z" transform="translate(-1 -6)"/><path class="cls-2" d="M1885.21,579.05c-15.36-3.31-35.27.61-51.92,11.46-15.66,10.21-24.58,24-25.06,36.4,15.37,3.32,35.28-.6,51.93-11.45C1875.82,605.25,1884.74,591.41,1885.21,579.05Z" transform="translate(-1 -6)"/><path class="cls-2" d="M1737.7,579.85c-1.4,12.55,6.25,26.72,21.37,36.64,14.24,9.34,31.58,12.62,45.9,9.85,1.39-12.54-6.26-26.72-21.38-36.64C1769.36,580.36,1752,577.08,1737.7,579.85Z" transform="translate(-1 -6)"/><path class="cls-2" d="M123,754.54c-11.57,6.81-19.43,20.2-19.43,35.6,0,14.48,7,27.19,17.41,34.31,11.57-6.81,19.43-20.19,19.43-35.59C140.38,774.37,133.42,761.67,123,754.54Z" transform="translate(-1 -6)"/><path class="cls-2" d="M161.84,763.43c-14,1.68-28.48,10.53-37.31,24.1-8.3,12.77-9.52,26.57-4.5,36.76,14-1.68,28.48-10.53,37.31-24.1C165.64,787.43,166.86,773.63,161.84,763.43Z" transform="translate(-1 -6)"/><path class="cls-2" d="M84.66,761.69c-6.73,10.34-6.49,25.19,2,38.95,8,12.94,21.24,21.72,34.62,24.23,6.72-10.34,6.49-25.19-2-38.94C111.32,773,98,764.21,84.66,761.69Z" transform="translate(-1 -6)"/><path class="cls-2" d="M190.19,783c-13.54-2.92-31.09.53-45.77,10.1-13.8,9-21.67,21.19-22.08,32.09,13.54,2.92,31.09-.54,45.76-10.1C181.91,806.11,189.77,793.91,190.19,783Z" transform="translate(-1 -6)"/><path class="cls-2" d="M60.16,783.72C58.93,794.78,65.67,807.27,79,816c12.54,8.23,27.83,11.12,40.45,8.68,1.23-11.06-5.51-23.55-18.85-32.3C88.07,784.17,72.78,781.28,60.16,783.72Z" transform="translate(-1 -6)"/><path class="cls-2" d="M1804.55,751.81c-11.56,6.81-19.43,20.2-19.43,35.6,0,14.48,7,27.19,17.42,34.31,11.56-6.81,19.43-20.19,19.43-35.59C1822,771.64,1815,758.94,1804.55,751.81Z" transform="translate(-1 -6)"/><path class="cls-2" d="M1843.43,760.71c-14,1.67-28.49,10.52-37.31,24.09-8.3,12.77-9.52,26.57-4.5,36.76,14-1.68,28.48-10.53,37.3-24.1C1847.22,784.7,1848.45,770.9,1843.43,760.71Z" transform="translate(-1 -6)"/><path class="cls-2" d="M1766.25,759c-6.73,10.34-6.49,25.19,2,38.95,8,12.94,21.24,21.72,34.61,24.23,6.73-10.34,6.49-25.19-2-38.94C1792.91,770.26,1779.63,761.48,1766.25,759Z" transform="translate(-1 -6)"/><path class="cls-2" d="M1871.78,780.29c-13.55-2.92-31.1.53-45.77,10.1-13.81,9-21.67,21.19-22.09,32.09,13.55,2.92,31.1-.54,45.77-10.1C1863.5,803.38,1871.36,791.18,1871.78,780.29Z" transform="translate(-1 -6)"/><path class="cls-2" d="M1741.75,781c-1.23,11.06,5.51,23.55,18.84,32.3,12.55,8.23,27.84,11.12,40.45,8.68,1.24-11.06-5.51-23.55-18.84-32.3C1769.66,781.44,1754.36,778.55,1741.75,781Z" transform="translate(-1 -6)"/><path class="cls-2" d="M121.13,959.61c-13.12,7.73-22,22.92-22,40.39,0,16.43,7.9,30.84,19.76,38.93,13.12-7.73,22-22.91,22-40.38C140.89,982.11,133,967.7,121.13,959.61Z" transform="translate(-1 -6)"/><path class="cls-2" d="M165.24,969.7c-15.85,1.9-32.32,11.95-42.33,27.34-9.42,14.48-10.8,30.14-5.11,41.7,15.85-1.9,32.32-11.94,42.33-27.33C169.54,996.92,170.93,981.27,165.24,969.7Z" transform="translate(-1 -6)"/><path class="cls-2" d="M77.68,967.72c-7.64,11.74-7.37,28.59,2.23,44.19,9,14.68,24.09,24.64,39.27,27.5,7.63-11.74,7.37-28.58-2.23-44.19C107.92,980.54,92.85,970.58,77.68,967.72Z" transform="translate(-1 -6)"/><path class="cls-2" d="M197.4,991.92c-15.37-3.31-35.28.61-51.92,11.46-15.67,10.21-24.59,24.05-25.06,36.4,15.36,3.32,35.27-.6,51.92-11.45C188,1018.12,196.92,1004.28,197.4,991.92Z" transform="translate(-1 -6)"/><path class="cls-2" d="M49.88,992.72c-1.4,12.54,6.25,26.72,21.38,36.64,14.23,9.34,31.58,12.62,45.89,9.85,1.4-12.55-6.25-26.72-21.38-36.64C81.54,993.23,64.19,990,49.88,992.72Z" transform="translate(-1 -6)"/><path class="cls-2" d="M1808,959.42c-13.12,7.73-22,22.91-22,40.38,0,16.44,7.89,30.85,19.75,38.94,13.13-7.73,22-22.92,22-40.39C1827.77,981.92,1819.87,967.51,1808,959.42Z" transform="translate(-1 -6)"/><path class="cls-2" d="M1852.12,969.51c-15.85,1.9-32.32,11.94-42.33,27.34-9.42,14.48-10.8,30.14-5.11,41.7,15.85-1.9,32.31-11.94,42.32-27.34C1856.42,996.73,1857.81,981.07,1852.12,969.51Z" transform="translate(-1 -6)"/><path class="cls-2" d="M1764.55,967.53c-7.63,11.74-7.36,28.58,2.24,44.19,9,14.68,24.09,24.64,39.27,27.49,7.63-11.73,7.36-28.58-2.23-44.18C1794.8,980.35,1779.73,970.39,1764.55,967.53Z" transform="translate(-1 -6)"/><path class="cls-2" d="M1884.28,991.73c-15.37-3.31-35.28.6-51.93,11.46-15.66,10.21-24.58,24-25,36.4,15.36,3.31,35.27-.6,51.92-11.46C1874.88,1017.92,1883.8,1004.09,1884.28,991.73Z" transform="translate(-1 -6)"/><path class="cls-2" d="M1736.76,992.53c-1.4,12.54,6.25,26.71,21.38,36.64,14.23,9.34,31.58,12.62,45.89,9.84,1.4-12.54-6.25-26.71-21.38-36.64C1768.42,993,1751.07,989.75,1736.76,992.53Z" transform="translate(-1 -6)"/><path class="cls-2" d="M123.27,1150.65c-16.75,9.87-28.14,29.25-28.14,51.56,0,21,10.08,39.38,25.22,49.71,16.75-9.87,28.15-29.26,28.15-51.56C148.5,1179.37,138.41,1161,123.27,1150.65Z" transform="translate(-1 -6)"/><path class="cls-2" d="M179.58,1163.53c-20.23,2.43-41.26,15.25-54,34.9-12,18.5-13.79,38.48-6.52,53.25,20.23-2.43,41.26-15.25,54-34.91C185.08,1198.28,186.85,1178.3,179.58,1163.53Z" transform="translate(-1 -6)"/><path class="cls-2" d="M67.79,1161c-9.75,15-9.41,36.5,2.85,56.42,11.53,18.74,30.76,31.46,50.14,35.11,9.74-15,9.4-36.5-2.85-56.42C106.4,1177.37,87.16,1164.65,67.79,1161Z" transform="translate(-1 -6)"/><path class="cls-2" d="M220.64,1191.9c-19.61-4.23-45,.77-66.29,14.63-20,13-31.39,30.7-32,46.48,19.61,4.23,45-.77,66.29-14.63C208.65,1225.34,220,1207.68,220.64,1191.9Z" transform="translate(-1 -6)"/><path class="cls-2" d="M32.3,1192.92c-1.78,16,8,34.11,27.3,46.78,18.17,11.92,40.31,16.11,58.59,12.57,1.78-16-8-34.11-27.3-46.78C72.72,1193.57,50.57,1189.38,32.3,1192.92Z" transform="translate(-1 -6)"/><path class="cls-2" d="M1800.79,1142.84c-16.76,9.87-28.15,29.26-28.15,51.56,0,21,10.08,39.39,25.23,49.71,16.75-9.87,28.14-29.26,28.14-51.56C1826,1171.57,1815.93,1153.17,1800.79,1142.84Z" transform="translate(-1 -6)"/><path class="cls-2" d="M1857.1,1155.72c-20.24,2.43-41.26,15.25-54,34.91-12,18.49-13.8,38.48-6.53,53.24,20.24-2.43,41.26-15.25,54-34.9C1862.6,1190.48,1864.36,1170.49,1857.1,1155.72Z" transform="translate(-1 -6)"/><path class="cls-2" d="M1745.3,1153.2c-9.74,15-9.4,36.49,2.85,56.41,11.53,18.74,30.77,31.46,50.14,35.11,9.75-15,9.41-36.49-2.85-56.41C1783.91,1169.56,1764.68,1156.84,1745.3,1153.2Z" transform="translate(-1 -6)"/><path class="cls-2" d="M1898.16,1184.09c-19.62-4.23-45,.77-66.3,14.63-20,13-31.38,30.7-32,46.48,19.62,4.23,45-.77,66.3-14.63C1886.16,1217.53,1897.55,1199.87,1898.16,1184.09Z" transform="translate(-1 -6)"/><path class="cls-2" d="M1709.81,1185.11c-1.78,16,8,34.11,27.3,46.78,18.17,11.93,40.32,16.12,58.59,12.57,1.79-16-8-34.1-27.29-46.78C1750.24,1185.76,1728.09,1181.57,1709.81,1185.11Z" transform="translate(-1 -6)"/><path class="cls-2" d="M1814.56,1366c-13.12,7.72-22,22.91-22,40.38,0,16.43,7.9,30.85,19.76,38.93,13.12-7.73,22-22.91,22-40.38C1834.32,1388.5,1826.43,1374.09,1814.56,1366Z" transform="translate(-1 -6)"/><path class="cls-2" d="M1858.67,1376.1c-15.85,1.9-32.32,11.94-42.33,27.33-9.41,14.48-10.8,30.14-5.11,41.7,15.85-1.9,32.32-11.94,42.33-27.33C1863,1403.31,1864.36,1387.66,1858.67,1376.1Z" transform="translate(-1 -6)"/><path class="cls-2" d="M1771.11,1374.12c-7.63,11.73-7.37,28.58,2.23,44.18,9,14.68,24.1,24.64,39.27,27.5,7.63-11.74,7.37-28.58-2.23-44.19C1801.35,1386.93,1786.29,1377,1771.11,1374.12Z" transform="translate(-1 -6)"/><path class="cls-2" d="M1890.83,1398.31c-15.36-3.31-35.27.61-51.92,11.46-15.67,10.21-24.59,24-25.06,36.41,15.36,3.31,35.27-.61,51.92-11.46C1881.44,1424.51,1890.36,1410.67,1890.83,1398.31Z" transform="translate(-1 -6)"/><path class="cls-2" d="M1743.31,1399.11c-1.39,12.55,6.26,26.72,21.38,36.64,14.23,9.34,31.58,12.62,45.89,9.85,1.4-12.54-6.25-26.71-21.38-36.64C1775,1399.62,1757.63,1396.34,1743.31,1399.11Z" transform="translate(-1 -6)"/><path class="cls-2" d="M116.45,1344.88c-13.12,7.73-22,22.91-22,40.38,0,16.44,7.89,30.85,19.76,38.93,13.12-7.72,22-22.91,22-40.38C136.21,1367.38,128.31,1353,116.45,1344.88Z" transform="translate(-1 -6)"/><path class="cls-2" d="M160.56,1355c-15.85,1.9-32.32,11.94-42.33,27.34-9.42,14.48-10.8,30.13-5.11,41.7,15.85-1.9,32.32-11.94,42.33-27.34C164.86,1382.19,166.25,1366.53,160.56,1355Z" transform="translate(-1 -6)"/><path class="cls-2" d="M73,1353c-7.63,11.73-7.36,28.58,2.24,44.18,9,14.68,24.09,24.65,39.27,27.5,7.63-11.73,7.36-28.58-2.23-44.18C103.24,1365.81,88.17,1355.84,73,1353Z" transform="translate(-1 -6)"/><path class="cls-2" d="M192.72,1377.19c-15.37-3.31-35.28.6-51.93,11.45-15.66,10.22-24.58,24-25,36.41,15.36,3.31,35.27-.6,51.92-11.46C183.32,1403.38,192.24,1389.54,192.72,1377.19Z" transform="translate(-1 -6)"/><path class="cls-2" d="M45.2,1378c-1.4,12.54,6.25,26.71,21.38,36.64,14.23,9.34,31.58,12.62,45.89,9.84,1.4-12.54-6.25-26.71-21.38-36.64C76.86,1378.49,59.51,1375.21,45.2,1378Z" transform="translate(-1 -6)"/><path class="cls-2" d="M131.19,1777.92c-16.75,9.87-28.15,29.25-28.15,51.56,0,21,10.09,39.38,25.23,49.7,16.75-9.86,28.14-29.25,28.14-51.56C156.41,1806.64,146.33,1788.24,131.19,1777.92Z" transform="translate(-1 -6)"/><path class="cls-2" d="M187.5,1790.8c-20.23,2.43-41.26,15.25-54,34.9-12,18.49-13.79,38.48-6.53,53.25,20.24-2.43,41.26-15.25,54-34.91C193,1825.55,194.77,1805.56,187.5,1790.8Z" transform="translate(-1 -6)"/><path class="cls-2" d="M75.7,1788.27c-9.74,15-9.4,36.49,2.86,56.42,11.52,18.74,30.76,31.46,50.14,35.1,9.74-15,9.4-36.49-2.85-56.41C114.32,1804.64,95.08,1791.92,75.7,1788.27Z" transform="translate(-1 -6)"/><path class="cls-2" d="M228.56,1819.17c-19.61-4.23-45,.77-66.29,14.63-20,13-31.39,30.7-32,46.48,19.61,4.22,45-.78,66.29-14.63C216.57,1852.61,228,1834.94,228.56,1819.17Z" transform="translate(-1 -6)"/><path class="cls-2" d="M40.22,1820.19c-1.79,16,8,34.11,27.29,46.78,18.17,11.92,40.32,16.11,58.6,12.57,1.78-16-8-34.11-27.3-46.78C80.64,1820.84,58.49,1816.65,40.22,1820.19Z" transform="translate(-1 -6)"/><path class="cls-2" d="M124.37,1558.58c-13.12,7.73-22,22.92-22,40.39,0,16.43,7.89,30.84,19.75,38.93,13.13-7.73,22-22.91,22-40.38C144.13,1581.08,136.23,1566.67,124.37,1558.58Z" transform="translate(-1 -6)"/><path class="cls-2" d="M168.48,1568.67c-15.85,1.9-32.32,11.95-42.33,27.34-9.42,14.48-10.8,30.14-5.11,41.7,15.85-1.9,32.31-11.94,42.32-27.33C172.78,1595.89,174.17,1580.24,168.48,1568.67Z" transform="translate(-1 -6)"/><path class="cls-2" d="M80.91,1566.69c-7.63,11.74-7.36,28.59,2.24,44.19,9,14.68,24.09,24.64,39.27,27.5,7.63-11.74,7.36-28.58-2.23-44.19C111.16,1579.51,96.09,1569.55,80.91,1566.69Z" transform="translate(-1 -6)"/><path class="cls-2" d="M200.64,1590.89c-15.37-3.31-35.28.61-51.93,11.46-15.66,10.21-24.58,24.05-25.05,36.4,15.36,3.32,35.27-.6,51.92-11.45C191.24,1617.09,200.16,1603.25,200.64,1590.89Z" transform="translate(-1 -6)"/><path class="cls-2" d="M53.12,1591.69c-1.4,12.55,6.25,26.72,21.38,36.64,14.23,9.34,31.58,12.62,45.89,9.85,1.4-12.55-6.25-26.72-21.38-36.64C84.78,1592.2,67.43,1588.92,53.12,1591.69Z" transform="translate(-1 -6)"/><path class="cls-2" d="M1804.19,1801.7c-16.75,9.87-28.15,29.26-28.15,51.56,0,21,10.09,39.39,25.23,49.71,16.75-9.87,28.14-29.26,28.14-51.56C1829.41,1830.42,1819.33,1812,1804.19,1801.7Z" transform="translate(-1 -6)"/><path class="cls-2" d="M1860.5,1814.58c-20.23,2.43-41.26,15.25-54,34.91-12,18.49-13.79,38.47-6.53,53.24,20.24-2.43,41.26-15.25,54-34.9C1866,1849.33,1867.77,1829.35,1860.5,1814.58Z" transform="translate(-1 -6)"/><path class="cls-2" d="M1748.7,1812.06c-9.74,15-9.4,36.49,2.86,56.41,11.52,18.74,30.76,31.46,50.14,35.11,9.74-15,9.4-36.49-2.85-56.42C1787.32,1828.42,1768.08,1815.7,1748.7,1812.06Z" transform="translate(-1 -6)"/><path class="cls-2" d="M1901.56,1843c-19.61-4.23-45,.77-66.29,14.63-20,13-31.39,30.7-32,46.48,19.61,4.23,45-.77,66.29-14.63C1889.57,1876.39,1901,1858.73,1901.56,1843Z" transform="translate(-1 -6)"/><path class="cls-2" d="M1713.22,1844c-1.79,16,8,34.11,27.29,46.78,18.17,11.92,40.32,16.11,58.6,12.57,1.78-16-8-34.1-27.3-46.78C1753.64,1844.62,1731.49,1840.43,1713.22,1844Z" transform="translate(-1 -6)"/><path class="cls-2" d="M1797.37,1582.37c-13.12,7.73-22,22.91-22,40.38,0,16.44,7.89,30.85,19.75,38.93,13.13-7.73,22.05-22.91,22.05-40.38C1817.13,1604.86,1809.23,1590.45,1797.37,1582.37Z" transform="translate(-1 -6)"/><path class="cls-2" d="M1841.48,1592.46c-15.85,1.9-32.32,11.94-42.33,27.33-9.42,14.49-10.8,30.14-5.11,41.7,15.85-1.89,32.31-11.94,42.32-27.33C1845.78,1619.68,1847.17,1604,1841.48,1592.46Z" transform="translate(-1 -6)"/><path class="cls-2" d="M1753.91,1590.48c-7.63,11.73-7.36,28.58,2.24,44.18,9,14.68,24.09,24.65,39.27,27.5,7.63-11.73,7.36-28.58-2.23-44.19C1784.16,1603.3,1769.09,1593.33,1753.91,1590.48Z" transform="translate(-1 -6)"/><path class="cls-2" d="M1873.64,1614.68c-15.37-3.32-35.28.6-51.93,11.45-15.66,10.21-24.58,24-25,36.41,15.36,3.31,35.27-.61,51.92-11.46C1864.24,1640.87,1873.16,1627,1873.64,1614.68Z" transform="translate(-1 -6)"/><path class="cls-2" d="M1726.12,1615.47c-1.4,12.55,6.25,26.72,21.38,36.64,14.23,9.34,31.58,12.62,45.89,9.85,1.4-12.54-6.25-26.71-21.38-36.64C1757.78,1616,1740.43,1612.7,1726.12,1615.47Z" transform="translate(-1 -6)"/></svg>
