<svg width="291" height="36" viewBox="0 0 291 36" fill="none" xmlns="http://www.w3.org/2000/svg">
<path fill-rule="evenodd" clip-rule="evenodd" d="M21.8379 9.67692C22.9163 7.28954 24.6256 5.03863 27.1099 3.07894C28.7747 4.70339 30.4237 7.04039 31.6083 9.80991C30.4689 10.8418 29.3961 12.0052 28.4404 13.2968C27.8089 14.1502 27.2291 15.059 26.7152 16.0218C26.1985 15.0078 25.6083 14.0539 24.9608 13.1617C24.0216 11.8675 22.9636 10.705 21.8379 9.67692ZM20.2932 8.37975C17.4761 6.20605 14.4022 4.8118 11.7762 4.23703L11.016 4.07063L10.6854 4.77509C9.14745 8.05163 8.53998 11.2175 8.63884 14.1845C5.73695 13.7386 2.97788 13.8474 0.758873 14.3515L0 14.5239V15.3021C0 23.573 4.15264 29.2565 9.58981 32.5361C14.9078 35.7439 21.4743 36.6703 26.6474 35.5361C31.9394 36.6692 38.6625 35.7461 44.1096 32.5416C49.6752 29.2674 53.9395 23.5849 53.9395 15.3021V14.5196L53.1755 14.3503C50.8824 13.8423 48.0238 13.7366 45.0196 14.1983C45.1433 11.2216 44.5512 8.05051 43.0138 4.77509L42.6816 4.06722L41.9185 4.23802C39.2268 4.84048 36.0649 6.27996 33.1654 8.51002C31.7405 5.38414 29.7748 2.79146 27.8137 1.07493L27.2266 0.561035L26.5966 1.02132C23.6515 3.17304 21.6049 5.69128 20.2932 8.37975ZM32.3474 11.7889C31.5129 12.5983 30.7242 13.488 30.0076 14.4565C29.1275 15.646 28.3547 16.9556 27.7396 18.384C28.4165 20.2579 28.8461 22.3025 28.9489 24.5108C30.174 22.4819 31.6587 20.7877 33.3034 19.3925C33.399 18.0537 33.3477 16.7399 33.1792 15.4684C33.0104 14.1955 32.7238 12.9631 32.3474 11.7889ZM35.3 17.8912C35.2933 16.9844 35.2282 16.0898 35.1119 15.2122C34.8887 13.5285 34.4774 11.9098 33.9303 10.389C36.4403 8.36528 39.1915 7.00137 41.5758 6.33437C42.7998 9.21367 43.2262 11.9838 43.0455 14.5812C41.0413 15.0521 39.0135 15.7838 37.0815 16.8235C36.4768 17.1489 35.8817 17.5043 35.3 17.8912ZM32.7895 22.5961C30.9224 24.6572 29.3941 27.2686 28.4446 30.5344C28.4202 30.6517 28.395 30.7695 28.3689 30.8876C30.6995 28.1706 32.0918 25.3597 32.7895 22.5961ZM30.5096 31.3549C33.3461 27.77 34.7564 24.0179 35.1687 20.3872C36.0754 19.6794 37.0273 19.0666 38.0054 18.5403C39.5503 17.7089 41.1627 17.0926 42.7672 16.6615C42.2767 19.1286 41.2451 21.4105 39.856 23.4459C37.471 26.9403 34.0406 29.6894 30.5096 31.3549ZM24.5361 29.5831C24.5252 29.5127 24.5146 29.4423 24.5044 29.3721C23.7558 27.1744 22.7398 25.298 21.5393 23.7058C22.2741 25.8487 23.3101 27.8493 24.5361 29.5831ZM18.7596 20.7537C19.4822 24.7582 21.237 28.5305 23.5262 31.4964C19.8137 29.9229 16.1449 27.0784 13.6646 23.3674C12.3212 21.3575 11.3283 19.098 10.8664 16.6484C12.4422 17.0792 14.0266 17.698 15.5443 18.5354C16.6605 19.1512 17.7424 19.8861 18.7596 20.7537ZM18.4354 18.042C17.8011 17.5984 17.1497 17.1944 16.4862 16.8284C14.5827 15.7781 12.5836 15.0414 10.6087 14.5702C10.4527 11.9822 10.8949 9.21535 12.1243 6.33146C14.4317 6.97025 17.0857 8.28453 19.5083 10.2441C18.5992 12.788 18.2845 15.4388 18.4354 18.042ZM20.5705 19.7531C20.5157 19.3839 20.4706 19.0129 20.4357 18.6407C20.2177 16.3145 20.3979 13.9444 21.0937 11.6566C21.9116 12.459 22.6834 13.3429 23.3829 14.3068C24.2693 15.5283 25.0414 16.8804 25.6437 18.3622C24.9387 20.1918 24.469 22.1835 24.3105 24.3301C23.2381 22.5515 21.9691 21.034 20.5705 19.7531ZM41.4663 24.5449C38.4313 28.9919 33.8501 32.3278 29.3025 33.9658C33.7036 34.3609 38.8447 33.3769 43.121 30.8612C47.9929 27.9951 51.7135 23.1657 51.9751 16.103C49.9229 15.7598 47.4285 15.75 44.8256 16.2059C44.3605 19.2633 43.1494 22.0788 41.4663 24.5449ZM26.6348 29.6345C26.5626 29.3934 26.4874 29.1554 26.4095 28.9207C26.0486 26.3125 26.1723 23.9179 26.655 21.7404C27.1259 24.112 27.1724 26.7444 26.6348 29.6345ZM10.5968 30.8667C14.8922 33.4576 20.0814 34.4202 24.4496 33.9248C19.8188 32.4039 15.1052 29.0312 12.0437 24.4508C10.4128 22.0106 9.24849 19.2221 8.815 16.1893C6.32063 15.7517 3.93315 15.764 1.96383 16.0996C2.21801 23.1754 5.8528 28.0052 10.5968 30.8667Z" fill="white"/>
</svg>
